# xmcd CD database file
#
# Track frame offsets:
#	150
#	30105
#	62875
#	79495
#	110192
#	130362
#	144912
#	170242
#	190892
#	218832
#	232810
#	249772
#
# Disc length: 3568 seconds
#
# Revision: 0
# Processed by: cddbd v1.5.1PL0 Copyright (c) Steve Scherf et al.
# Submitted via: CDex 1.51
#
DISCID=a60dee0c
DTITLE=竹松舞 - PAVANE
DYEAR=2002
DGENRE=Instrumental
TTITLE0=アダージョ（バーバー）
TTITLE1=君の声に我が胸ひらく〜[サムソンとデリラ]より（サン＝サーンス）
TTITLE2=ラルゴ〜[四季：冬]より（ヴィヴァルディ）
TTITLE3=亡き王女のためのパヴァーヌ（ラヴェル）
TTITLE4=涙のパヴァーヌ（ダウランド）
TTITLE5=アヴェ・マリア（カッチーニ）
TTITLE6=愛の夢（リスト）
TTITLE7=G線上のアリア（バッハ）
TTITLE8=ヴォカリーズ（ラフマニノフ）
TTITLE9=子守歌（フォーレ）
TTITLE10=サムシング（ジョージ・ハリスン）
TTITLE11=主よ人の望みの喜びよ（バッハ）
EXTD=YEAR: 2002
EXTT0=
EXTT1=
EXTT2=
EXTT3=
EXTT4=
EXTT5=
EXTT6=
EXTT7=
EXTT8=
EXTT9=
EXTT10=
EXTT11=
PLAYORDER=
